# xmcd CD database file
#
# Track frame offsets:
#	150
#	17069
#	29175
#	46690
#	63302
#	80500
#	95446
#	107148
#
# Disc length: 1625 seconds
#
# Revision: 0
# Processed by: cddbd v1.5.2PL0 Copyright (c) Steve Scherf et al.
# Submitted via: CDex 1.70beta2
#
DISCID=61065708
DTITLE=BALLSQUEEZER - FAN OF MYSELF
DYEAR=2015
DGENRE=Rock-Metal
TTITLE0=BALLSQUEEZER - CINNAMON GIRL
TTITLE1=BALLSQUEEZER - ON THE CHIN
TTITLE2=BALLSQUEEZER - NEVER AGAIN
TTITLE3=BALLSQUEEZER - BEER, BOOBS AND ROCK'N'ROLL
TTITLE4=BALLSQUEEZER - SHUT UP
TTITLE5=BALLSQUEEZER - LEAVE YOU BEHIND
TTITLE6=BALLSQUEEZER - FAN OF MYSELF
TTITLE7=BALLSQUEEZER - KEEP GOIN'
EXTD=YEAR: 2015
EXTT0=
EXTT1=
EXTT2=
EXTT3=
EXTT4=
EXTT5=
EXTT6=
EXTT7=
PLAYORDER=
